<svg width="50" height="51" viewBox="0 0 50 51" fill="none" xmlns="http://www.w3.org/2000/svg">
<path d="M0 24.8902C0 13.3926 0 7.64374 3.57187 4.07187C7.14374 0.5 12.8926 0.5 24.3902 0.5H25.6098C37.1074 0.5 42.8563 0.5 46.4281 4.07187C50 7.64374 50 13.3926 50 24.8902V26.1098C50 37.6074 50 43.3563 46.4281 46.9281C42.8563 50.5 37.1074 50.5 25.6098 50.5H24.3902C12.8926 50.5 7.14374 50.5 3.57187 46.9281C0 43.3563 0 37.6074 0 26.1098V24.8902Z" fill="#E5F4F2"/>
<path opacity="0.2" d="M29.9018 19.5778C30.3597 20.4117 30.6005 21.3474 30.6021 22.2988V22.6889C30.6037 23.0503 30.4814 23.4012 30.2557 23.6834C30.03 23.9655 29.7144 24.1618 29.3616 24.2395C27.9301 24.5595 26.4666 24.7139 24.9999 24.6997C23.5332 24.7139 22.0697 24.5595 20.6383 24.2395C20.2854 24.1618 19.9698 23.9655 19.7441 23.6834C19.5184 23.4012 19.3962 23.0503 19.3978 22.6889V22.3788C19.3984 21.3969 19.6534 20.4318 20.1381 19.5778C16.3866 20.3481 13.7957 21.9987 13.7957 23.8994C13.7957 26.5504 18.8076 28.7012 24.9999 28.7012C31.1923 28.7012 36.2042 26.5504 36.2042 23.8994C36.2042 21.9987 33.6332 20.3581 29.9018 19.5778Z" fill="#009379"/>
<path d="M29.0815 31.5723L29.4717 33.9332" stroke="#009379" stroke-width="1.44817" stroke-linecap="round" stroke-linejoin="round"/>
<path d="M25 31.9025V35.1037" stroke="#009379" stroke-width="1.44817" stroke-linecap="round" stroke-linejoin="round"/>
<path d="M20.9185 31.5723L20.5283 33.9332" stroke="#009379" stroke-width="1.44817" stroke-linecap="round" stroke-linejoin="round"/>
<path d="M29.9018 19.5778C33.6332 20.3581 36.2042 21.9987 36.2042 23.8994C36.2042 26.5504 31.1923 28.7012 24.9999 28.7012C18.8076 28.7012 13.7957 26.5504 13.7957 23.8994C13.7957 21.9987 16.3866 20.3481 20.1381 19.5778" stroke="#009379" stroke-width="1.44817" stroke-linecap="round" stroke-linejoin="round"/>
<path d="M19.3977 22.6889C19.3961 23.0503 19.5184 23.4012 19.7441 23.6834C19.9698 23.9655 20.2853 24.1618 20.6382 24.2395C22.0697 24.5595 23.5331 24.7139 24.9999 24.6997C26.4666 24.7139 27.9301 24.5595 29.3615 24.2395C29.7144 24.1618 30.0299 23.9655 30.2556 23.6834C30.4814 23.4012 30.6036 23.0503 30.602 22.6889V22.2988C30.602 21.5572 30.4549 20.8229 30.169 20.1387C29.8831 19.4544 29.4641 18.8337 28.9365 18.3125C28.4088 17.7914 27.783 17.3802 27.0952 17.1028C26.4074 16.8255 25.6714 16.6874 24.9298 16.6967C21.8487 16.7367 19.3977 19.3077 19.3977 22.3788V22.6889Z" stroke="#009379" stroke-width="1.44817" stroke-linecap="round" stroke-linejoin="round"/>
</svg>
