<svg width="176" height="32" viewBox="0 0 176 32" fill="none" xmlns="http://www.w3.org/2000/svg">
<g clip-path="url(#clip0_1213_1504)">
<path fill-rule="evenodd" clip-rule="evenodd" d="M0 16C0 7.16344 7.16344 0 16 0C24.8366 0 32 7.16344 32 16C32 24.8366 24.8366 32 16 32C7.16344 32 0 24.8366 0 16Z" fill="#4E4D4D"/>
<path fill-rule="evenodd" clip-rule="evenodd" d="M22.6679 10.4995C23.4022 10.701 23.9805 11.2948 24.1768 12.0488C24.5335 13.4153 24.5335 16.2666 24.5335 16.2666C24.5335 16.2666 24.5335 19.1178 24.1768 20.4845C23.9805 21.2385 23.4022 21.8322 22.6679 22.0338C21.3371 22.4 16.0001 22.4 16.0001 22.4C16.0001 22.4 10.6632 22.4 9.3323 22.0338C8.59795 21.8322 8.01962 21.2385 7.82335 20.4845C7.4668 19.1178 7.4668 16.2666 7.4668 16.2666C7.4668 16.2666 7.4668 13.4153 7.82335 12.0488C8.01962 11.2948 8.59795 10.701 9.3323 10.4995C10.6632 10.1333 16.0001 10.1333 16.0001 10.1333C16.0001 10.1333 21.3371 10.1333 22.6679 10.4995ZM14.4001 13.8666V19.1999L18.6668 16.5333L14.4001 13.8666Z" fill="white"/>
<path fill-rule="evenodd" clip-rule="evenodd" d="M48 16C48 7.16344 55.1634 0 64 0C72.8366 0 80 7.16344 80 16C80 24.8366 72.8366 32 64 32C55.1634 32 48 24.8366 48 16Z" fill="#4E4D4D"/>
<path fill-rule="evenodd" clip-rule="evenodd" d="M64.0007 7.4668C61.6832 7.4668 61.3923 7.47693 60.4821 7.51835C59.5736 7.55995 58.9535 7.70378 58.4109 7.9148C57.8497 8.13276 57.3736 8.42432 56.8993 8.89881C56.4246 9.37313 56.133 9.84922 55.9144 10.4103C55.7028 10.9531 55.5588 11.5733 55.5179 12.4814C55.4772 13.3917 55.4666 13.6827 55.4666 16.0002C55.4666 18.3178 55.4769 18.6077 55.5181 19.5179C55.5599 20.4264 55.7037 21.0465 55.9146 21.5891C56.1327 22.1503 56.4243 22.6264 56.8987 23.1007C57.3729 23.5754 57.849 23.8677 58.4099 24.0856C58.9528 24.2967 59.5731 24.4405 60.4814 24.4821C61.3916 24.5235 61.6823 24.5336 63.9996 24.5336C66.3173 24.5336 66.6073 24.5235 67.5175 24.4821C68.426 24.4405 69.0468 24.2967 69.5897 24.0856C70.1508 23.8677 70.6262 23.5754 71.1003 23.1007C71.575 22.6264 71.8665 22.1503 72.0852 21.5893C72.295 21.0465 72.439 20.4262 72.4817 19.5181C72.5226 18.6079 72.5332 18.3178 72.5332 16.0002C72.5332 13.6827 72.5226 13.3918 72.4817 12.4816C72.439 11.5732 72.295 10.9531 72.0852 10.4105C71.8665 9.84922 71.575 9.37313 71.1003 8.89881C70.6256 8.42414 70.151 8.13258 69.5892 7.9148C69.0452 7.70378 68.4247 7.55995 67.5163 7.51835C66.606 7.47693 66.3163 7.4668 63.998 7.4668H64.0007ZM63.2351 9.00457C63.4623 9.00421 63.7158 9.00457 64.0006 9.00457C66.2791 9.00457 66.5491 9.01274 67.4489 9.05363C68.2809 9.09168 68.7324 9.2307 69.0332 9.3475C69.4315 9.50217 69.7154 9.68706 70.0139 9.98573C70.3125 10.2844 70.4974 10.5688 70.6525 10.9671C70.7693 11.2675 70.9085 11.7191 70.9463 12.5511C70.9872 13.4507 70.9961 13.7209 70.9961 15.9982C70.9961 18.2756 70.9872 18.5458 70.9463 19.4454C70.9083 20.2774 70.7693 20.729 70.6525 21.0294C70.4978 21.4276 70.3125 21.7112 70.0139 22.0097C69.7152 22.3084 69.4316 22.4932 69.0332 22.6479C68.7328 22.7652 68.2809 22.9039 67.4489 22.942C66.5493 22.9828 66.2791 22.9917 64.0006 22.9917C61.722 22.9917 61.452 22.9828 60.5524 22.942C59.7204 22.9036 59.2689 22.7645 58.9679 22.6477C58.5697 22.4931 58.2852 22.3082 57.9865 22.0095C57.6879 21.7108 57.503 21.4271 57.348 21.0287C57.2312 20.7282 57.092 20.2767 57.0541 19.4447C57.0132 18.5451 57.005 18.2749 57.005 15.9961C57.005 13.7173 57.0132 13.4485 57.0541 12.549C57.0921 11.717 57.2312 11.2654 57.348 10.9646C57.5026 10.5664 57.6879 10.2819 57.9865 9.98324C58.2852 9.68457 58.5697 9.49968 58.9679 9.34466C59.2687 9.22732 59.7204 9.08866 60.5524 9.05043C61.3396 9.01488 61.6447 9.00421 63.2351 9.00243V9.00457ZM68.5557 10.4215C67.9904 10.4215 67.5317 10.8796 67.5317 11.4451C67.5317 12.0105 67.9904 12.4691 68.5557 12.4691C69.1211 12.4691 69.5797 12.0105 69.5797 11.4451C69.5797 10.8798 69.1211 10.4215 68.5557 10.4215ZM64.0007 11.6179C61.5806 11.6179 59.6184 13.5801 59.6184 16.0002C59.6184 18.4203 61.5806 20.3816 64.0007 20.3816C66.4208 20.3816 68.3823 18.4203 68.3823 16.0002C68.3823 13.5801 66.4208 11.6179 64.0007 11.6179ZM64.0007 13.1557C65.5715 13.1557 66.8451 14.4292 66.8451 16.0002C66.8451 17.5711 65.5715 18.8447 64.0007 18.8447C62.4296 18.8447 61.1562 17.5711 61.1562 16.0002C61.1562 14.4292 62.4296 13.1557 64.0007 13.1557Z" fill="white"/>
<circle cx="112" cy="16" r="16" fill="#4E4D4D"/>
<path d="M112 4C105.373 4 100 9.50847 100 16.3038C100 21.74 103.438 26.3519 108.206 27.9789C108.806 28.0927 109.026 27.7119 109.026 27.387C109.026 27.0936 109.015 26.1244 109.01 25.0963C105.672 25.8405 104.967 23.6446 104.967 23.6446C104.421 22.2224 103.635 21.8443 103.635 21.8443C102.546 21.0806 103.717 21.0963 103.717 21.0963C104.922 21.1831 105.556 22.3642 105.556 22.3642C106.627 24.2452 108.364 23.7014 109.048 23.387C109.156 22.5918 109.467 22.049 109.81 21.7418C107.145 21.4307 104.343 20.3757 104.343 15.6612C104.343 14.3179 104.812 13.2203 105.579 12.3587C105.455 12.0488 105.044 10.7974 105.696 9.10261C105.696 9.10261 106.703 8.77193 108.996 10.3638C109.954 10.0912 110.98 9.95447 112 9.94979C113.02 9.95447 114.047 10.0912 115.006 10.3638C117.297 8.77193 118.303 9.10261 118.303 9.10261C118.956 10.7974 118.545 12.0488 118.421 12.3587C119.19 13.2203 119.656 14.3179 119.656 15.6612C119.656 20.3869 116.848 21.4274 114.176 21.732C114.607 22.1138 114.99 22.8626 114.99 24.0105C114.99 25.6568 114.976 26.9817 114.976 27.387C114.976 27.7144 115.192 28.098 115.801 27.9772C120.566 26.3485 124 21.7381 124 16.3038C124 9.50847 118.627 4 112 4Z" fill="white"/>
<path d="M104.58 21.5812C104.554 21.6417 104.46 21.6598 104.375 21.6183C104.288 21.5785 104.239 21.496 104.268 21.4353C104.293 21.373 104.387 21.3556 104.474 21.3974C104.561 21.4371 104.611 21.5204 104.58 21.5812Z" fill="white"/>
<path d="M105.066 22.1315C105.008 22.1853 104.897 22.1603 104.821 22.0752C104.743 21.9903 104.728 21.8767 104.786 21.822C104.845 21.7682 104.953 21.7934 105.032 21.8783C105.11 21.9642 105.125 22.077 105.066 22.1315Z" fill="white"/>
<path d="M105.538 22.8331C105.464 22.885 105.344 22.8364 105.27 22.728C105.197 22.6197 105.197 22.4898 105.272 22.4377C105.346 22.3857 105.464 22.4325 105.54 22.54C105.613 22.6502 105.613 22.7801 105.538 22.8331Z" fill="white"/>
<path d="M106.185 23.511C106.119 23.5846 105.979 23.5648 105.877 23.4644C105.772 23.3661 105.743 23.2267 105.809 23.1531C105.875 23.0793 106.016 23.1 106.119 23.1997C106.223 23.2977 106.255 23.4381 106.185 23.511Z" fill="white"/>
<path d="M107.077 23.9046C107.048 24 106.914 24.0433 106.778 24.0028C106.643 23.961 106.554 23.8493 106.581 23.7528C106.61 23.6568 106.745 23.6116 106.881 23.655C107.017 23.6966 107.106 23.8075 107.077 23.9046Z" fill="white"/>
<path d="M108.058 23.9776C108.061 24.0781 107.946 24.1614 107.804 24.1632C107.66 24.1664 107.545 24.0851 107.543 23.9863C107.543 23.8848 107.655 23.8023 107.799 23.7999C107.941 23.797 108.058 23.8777 108.058 23.9776Z" fill="white"/>
<path d="M108.97 23.8196C108.987 23.9177 108.888 24.0183 108.747 24.0452C108.607 24.071 108.479 24.0105 108.461 23.9132C108.444 23.8128 108.545 23.7121 108.683 23.6861C108.825 23.6611 108.952 23.72 108.97 23.8196Z" fill="white"/>
<path fill-rule="evenodd" clip-rule="evenodd" d="M144 16C144 7.16344 151.163 0 160 0C168.837 0 176 7.16344 176 16C176 24.8366 168.837 32 160 32C151.163 32 144 24.8366 144 16Z" fill="#4E4D4D"/>
<path d="M155.546 9.8818C155.522 8.8136 154.759 8 153.518 8C152.278 8 151.467 8.8136 151.467 9.8818C151.467 10.9279 152.254 11.7649 153.471 11.7649H153.494C154.759 11.7649 155.546 10.9279 155.546 9.8818Z" fill="white"/>
<path d="M155.307 13.252H151.681V24.1464H155.307V13.252Z" fill="white"/>
<path d="M164.209 12.9961C166.595 12.9961 168.384 14.5535 168.384 17.8998L168.384 24.1464H164.758V18.3178C164.758 16.8538 164.233 15.8548 162.92 15.8548C161.919 15.8548 161.322 16.5283 161.06 17.1788C160.964 17.4119 160.941 17.7367 160.941 18.0623V24.1467H157.314C157.314 24.1467 157.362 14.2745 157.314 13.2522H160.941V14.7953C161.422 14.0535 162.284 12.9961 164.209 12.9961Z" fill="white"/>
</g>
<defs>
<clipPath id="clip0_1213_1504">
<rect width="176" height="32" fill="white"/>
</clipPath>
</defs>
</svg>
