<svg width="281" height="27" viewBox="0 0 281 27" fill="none" xmlns="http://www.w3.org/2000/svg">
<path d="M13.5077 21.1981L19.3226 24.8901C20.0725 25.3631 20.9956 24.6593 20.7763 23.794L19.0919 17.1714C19.0463 16.9879 19.0535 16.7952 19.1127 16.6155C19.1719 16.4359 19.2807 16.2767 19.4264 16.1561L24.6414 11.8065C25.3222 11.2411 24.976 10.0989 24.0876 10.0412L17.2804 9.60277C17.0947 9.59197 16.9161 9.52729 16.7666 9.41665C16.617 9.306 16.5029 9.15418 16.4382 8.97974L13.8999 2.58791C13.8327 2.4032 13.7103 2.24363 13.5493 2.13088C13.3883 2.01812 13.1966 1.95764 13 1.95764C12.8034 1.95764 12.6117 2.01812 12.4507 2.13088C12.2897 2.24363 12.1673 2.4032 12.1001 2.58791L9.56179 8.97974C9.4971 9.15418 9.383 9.306 9.23343 9.41665C9.08385 9.52729 8.90529 9.59197 8.71955 9.60277L1.91237 10.0412C1.02397 10.0989 0.677844 11.2411 1.35856 11.8065L6.57356 16.1561C6.71932 16.2767 6.82806 16.4359 6.88726 16.6155C6.94645 16.7952 6.9537 16.9879 6.90815 17.1714L5.35057 23.3094C5.08521 24.3478 6.19282 25.1901 7.08121 24.6247L12.4923 21.1981C12.6441 21.1016 12.8202 21.0503 13 21.0503C13.1798 21.0503 13.3559 21.1016 13.5077 21.1981Z" fill="#F8D57E" stroke="#F8D57E" stroke-width="2" stroke-linecap="round" stroke-linejoin="round"/>
<path d="M42.5077 21.1981L48.3226 24.8901C49.0725 25.3631 49.9956 24.6593 49.7763 23.794L48.0919 17.1714C48.0463 16.9879 48.0535 16.7952 48.1127 16.6155C48.1719 16.4359 48.2807 16.2767 48.4264 16.1561L53.6414 11.8065C54.3222 11.2411 53.976 10.0989 53.0876 10.0412L46.2804 9.60277C46.0947 9.59197 45.9161 9.52729 45.7666 9.41665C45.617 9.306 45.5029 9.15418 45.4382 8.97974L42.8999 2.58791C42.8327 2.4032 42.7103 2.24363 42.5493 2.13088C42.3883 2.01812 42.1966 1.95764 42 1.95764C41.8034 1.95764 41.6117 2.01812 41.4507 2.13088C41.2897 2.24363 41.1673 2.4032 41.1001 2.58791L38.5618 8.97974C38.4971 9.15418 38.383 9.306 38.2334 9.41665C38.0839 9.52729 37.9053 9.59197 37.7196 9.60277L30.9124 10.0412C30.024 10.0989 29.6778 11.2411 30.3586 11.8065L35.5736 16.1561C35.7193 16.2767 35.8281 16.4359 35.8873 16.6155C35.9465 16.7952 35.9537 16.9879 35.9081 17.1714L34.3506 23.3094C34.0852 24.3478 35.1928 25.1901 36.0812 24.6247L41.4923 21.1981C41.6441 21.1016 41.8202 21.0503 42 21.0503C42.1798 21.0503 42.3559 21.1016 42.5077 21.1981Z" fill="#F8D57E" stroke="#F8D57E" stroke-width="2" stroke-linecap="round" stroke-linejoin="round"/>
<path d="M71.5077 21.1981L77.3226 24.8901C78.0725 25.3631 78.9956 24.6593 78.7763 23.794L77.0919 17.1714C77.0463 16.9879 77.0535 16.7952 77.1127 16.6155C77.1719 16.4359 77.2807 16.2767 77.4264 16.1561L82.6414 11.8065C83.3222 11.2411 82.976 10.0989 82.0876 10.0412L75.2804 9.60277C75.0947 9.59197 74.9161 9.52729 74.7666 9.41665C74.617 9.306 74.5029 9.15418 74.4382 8.97974L71.8999 2.58791C71.8327 2.4032 71.7103 2.24363 71.5493 2.13088C71.3883 2.01812 71.1966 1.95764 71 1.95764C70.8034 1.95764 70.6117 2.01812 70.4507 2.13088C70.2897 2.24363 70.1673 2.4032 70.1001 2.58791L67.5618 8.97974C67.4971 9.15418 67.383 9.306 67.2334 9.41665C67.0839 9.52729 66.9053 9.59197 66.7196 9.60277L59.9124 10.0412C59.024 10.0989 58.6778 11.2411 59.3586 11.8065L64.5736 16.1561C64.7193 16.2767 64.8281 16.4359 64.8873 16.6155C64.9465 16.7952 64.9537 16.9879 64.9081 17.1714L63.3506 23.3094C63.0852 24.3478 64.1928 25.1901 65.0812 24.6247L70.4923 21.1981C70.6441 21.1016 70.8202 21.0503 71 21.0503C71.1798 21.0503 71.3559 21.1016 71.5077 21.1981Z" fill="#F8D57E" stroke="#F8D57E" stroke-width="2" stroke-linecap="round" stroke-linejoin="round"/>
<path d="M100.508 21.1981L106.323 24.8901C107.073 25.3631 107.996 24.6593 107.776 23.794L106.092 17.1714C106.046 16.9879 106.054 16.7952 106.113 16.6155C106.172 16.4359 106.281 16.2767 106.426 16.1561L111.641 11.8065C112.322 11.2411 111.976 10.0989 111.088 10.0412L104.28 9.60277C104.095 9.59197 103.916 9.52729 103.767 9.41665C103.617 9.306 103.503 9.15418 103.438 8.97974L100.9 2.58791C100.833 2.4032 100.71 2.24363 100.549 2.13088C100.388 2.01812 100.197 1.95764 100 1.95764C99.8034 1.95764 99.6117 2.01812 99.4507 2.13088C99.2897 2.24363 99.1673 2.4032 99.1001 2.58791L96.5618 8.97974C96.4971 9.15418 96.383 9.306 96.2334 9.41665C96.0839 9.52729 95.9053 9.59197 95.7196 9.60277L88.9124 10.0412C88.024 10.0989 87.6778 11.2411 88.3586 11.8065L93.5736 16.1561C93.7193 16.2767 93.8281 16.4359 93.8873 16.6155C93.9465 16.7952 93.9537 16.9879 93.9081 17.1714L92.3506 23.3094C92.0852 24.3478 93.1928 25.1901 94.0812 24.6247L99.4923 21.1981C99.6441 21.1016 99.8202 21.0503 100 21.0503C100.18 21.0503 100.356 21.1016 100.508 21.1981Z" fill="#F8D57E" stroke="#F8D57E" stroke-width="2" stroke-linecap="round" stroke-linejoin="round"/>
<path d="M129.508 21.1981L135.323 24.8901C136.073 25.3631 136.996 24.6593 136.776 23.794L135.092 17.1714C135.046 16.9879 135.054 16.7952 135.113 16.6155C135.172 16.4359 135.281 16.2767 135.426 16.1561L140.641 11.8065C141.322 11.2411 140.976 10.0989 140.088 10.0412L133.28 9.60277C133.095 9.59197 132.916 9.52729 132.767 9.41665C132.617 9.306 132.503 9.15418 132.438 8.97974L129.9 2.58791C129.833 2.4032 129.71 2.24363 129.549 2.13088C129.388 2.01812 129.197 1.95764 129 1.95764C128.803 1.95764 128.612 2.01812 128.451 2.13088C128.29 2.24363 128.167 2.4032 128.1 2.58791L125.562 8.97974C125.497 9.15418 125.383 9.306 125.233 9.41665C125.084 9.52729 124.905 9.59197 124.72 9.60277L117.912 10.0412C117.024 10.0989 116.678 11.2411 117.359 11.8065L122.574 16.1561C122.719 16.2767 122.828 16.4359 122.887 16.6155C122.946 16.7952 122.954 16.9879 122.908 17.1714L121.351 23.3094C121.085 24.3478 122.193 25.1901 123.081 24.6247L128.492 21.1981C128.644 21.1016 128.82 21.0503 129 21.0503C129.18 21.0503 129.356 21.1016 129.508 21.1981Z" fill="#F8D57E" stroke="#F8D57E" stroke-width="2" stroke-linecap="round" stroke-linejoin="round"/>
</svg>
